<svg width="16" height="14" viewBox="0 0 16 14" fill="none" xmlns="http://www.w3.org/2000/svg">
<path d="M5 8H4.5C3.39531 8 2.5 8.89688 2.5 10.0037V11.9963C2.5 13.1028 3.39531 14 4.5 14H5C5.55219 14 6 13.5513 6 12.9981V9.00187C6 8.44844 5.55219 8 5 8ZM11.5 8H11C10.4478 8 10 8.44844 10 9.00187V12.9981C10 13.5513 10.4478 14 11 14H11.5C12.6047 14 13.5 13.1028 13.5 11.9963V10.0037C13.5 8.89719 12.6047 8 11.5 8ZM8 0C3.52844 0 0.142813 3.72281 0 8V11.5C0 11.7762 0.22375 12 0.5 12H1C1.27625 12 1.5 11.7762 1.5 11.5V8C1.5 4.41656 4.41656 1.50625 8 1.50563C11.5834 1.50625 14.5 4.41656 14.5 8V11.5C14.5 11.7762 14.7238 12 15 12H15.5C15.7762 12 16 11.7762 16 11.5V8C15.8572 3.72281 12.4716 0 8 0Z" fill="white"/>
</svg>
