<svg width="21" height="18" viewBox="0 0 21 18" fill="none" xmlns="http://www.w3.org/2000/svg">
<path d="M18.2353 2.41035C17.7884 1.96323 17.2578 1.60854 16.6738 1.36655C16.0898 1.12455 15.4638 1 14.8316 1C14.1994 1 13.5734 1.12455 12.9894 1.36655C12.4054 1.60854 11.8748 1.96323 11.4278 2.41035L10.5003 3.33785L9.57285 2.41035C8.67012 1.50762 7.44575 1.00047 6.1691 1.00047C4.89244 1.00047 3.66808 1.50762 2.76535 2.41035C1.86262 3.31308 1.35547 4.53744 1.35547 5.8141C1.35547 7.09075 1.86262 8.31512 2.76535 9.21785L3.69285 10.1453L10.5003 16.9528L17.3078 10.1453L18.2353 9.21785C18.6825 8.77094 19.0372 8.24031 19.2791 7.65628C19.5211 7.07226 19.6457 6.44627 19.6457 5.8141C19.6457 5.18192 19.5211 4.55594 19.2791 3.97191C19.0372 3.38788 18.6825 2.85726 18.2353 2.41035Z" stroke="#F67D6D" stroke-width="2" stroke-linecap="round" stroke-linejoin="round"/>
</svg>
