<svg width="14" height="18" viewBox="0 0 14 18" fill="none" xmlns="http://www.w3.org/2000/svg">
<path d="M13.1755 8.24243C13.1755 13.0834 8.21727 16.0658 7.18687 16.6338C7.12979 16.6653 7.06566 16.6818 7.00047 16.6818C6.93528 16.6818 6.87115 16.6653 6.81407 16.6338C5.7829 16.0658 0.826172 13.0834 0.826172 8.24243C0.826172 4.38325 3.14168 1.68182 7.00086 1.68182C10.86 1.68182 13.1755 4.38325 13.1755 8.24243Z" stroke="#00256D" stroke-width="1.4" stroke-linecap="round" stroke-linejoin="round"/>
<path d="M3.91406 7.66907C3.91406 8.48788 4.23933 9.27316 4.81832 9.85215C5.39731 10.4311 6.18259 10.7564 7.0014 10.7564C7.82022 10.7564 8.6055 10.4311 9.18449 9.85215C9.76347 9.27316 10.0887 8.48788 10.0887 7.66907C10.0887 6.85025 9.76347 6.06498 9.18449 5.48599C8.6055 4.907 7.82022 4.58173 7.0014 4.58173C6.18259 4.58173 5.39731 4.907 4.81832 5.48599C4.23933 6.06498 3.91406 6.85025 3.91406 7.66907V7.66907Z" stroke="#00256D" stroke-linecap="round" stroke-linejoin="round"/>
</svg>
