<svg width="12" height="12" viewBox="0 0 12 12" fill="none" xmlns="http://www.w3.org/2000/svg">
<path d="M4.75464 2.11507L9.03464 4.25507C10.9546 5.21507 10.9546 6.78507 9.03464 7.74507L4.75464 9.88507C1.87464 11.3251 0.699644 10.1451 2.13964 7.27007L2.57464 6.40507C2.68464 6.18507 2.68464 5.82007 2.57464 5.60007L2.13964 4.73007C0.699644 1.85507 1.87964 0.675067 4.75464 2.11507ZM2.71964 6.00007H5.41964H2.71964Z" fill="#F67D6D"/>
<path d="M2.71964 6.00007H5.41964M4.75464 2.11507L9.03464 4.25507C10.9546 5.21507 10.9546 6.78507 9.03464 7.74507L4.75464 9.88507C1.87464 11.3251 0.699644 10.1451 2.13964 7.27007L2.57464 6.40507C2.68464 6.18507 2.68464 5.82007 2.57464 5.60007L2.13964 4.73007C0.699644 1.85507 1.87964 0.675067 4.75464 2.11507Z" stroke="#AE3A2A" stroke-width="1.5" stroke-linecap="round" stroke-linejoin="round"/>
</svg>
