<svg width="19" height="18" viewBox="0 0 19 18" fill="none" xmlns="http://www.w3.org/2000/svg">
<path d="M5.54232 8.25L8.70898 1.5C9.33887 1.5 9.94296 1.73705 10.3884 2.15901C10.8338 2.58097 11.084 3.15326 11.084 3.75V6.75H15.5648C15.7943 6.74754 16.0217 6.79238 16.2311 6.88141C16.4405 6.97045 16.6269 7.10155 16.7775 7.26564C16.9281 7.42972 17.0393 7.62287 17.1033 7.83169C17.1673 8.04051 17.1826 8.26002 17.1482 8.475L16.0557 15.225C15.9984 15.5827 15.8066 15.9087 15.5157 16.143C15.2247 16.3773 14.8542 16.5041 14.4723 16.5H5.54232M5.54232 8.25V16.5M5.54232 8.25H3.16732C2.74739 8.25 2.34466 8.40804 2.04773 8.68934C1.7508 8.97064 1.58398 9.35218 1.58398 9.75V15C1.58398 15.3978 1.7508 15.7794 2.04773 16.0607C2.34466 16.342 2.74739 16.5 3.16732 16.5H5.54232" stroke="#00256D" stroke-width="2" stroke-linecap="round" stroke-linejoin="round"/>
</svg>
