<svg width="8" height="11" viewBox="0 0 8 11" fill="none" xmlns="http://www.w3.org/2000/svg">
<path d="M4.8769 3.15383C4.56534 3.58347 4.16356 3.84351 3.68673 4.17647C3.20971 3.84558 2.80811 3.58347 2.49656 3.15383H4.8769ZM2.49429 7.88031H2.49444C2.1631 8.17539 1.90428 8.54298 1.73809 8.95451H5.63091C5.46472 8.54313 5.20591 8.17552 4.87472 7.88031H2.49429ZM4.58469 5.50203C5.62021 6.14659 7.30886 7.54524 7.30886 9.15427V9.67415C7.30886 10.5958 6.67945 10.6538 6.43024 10.6538L1.0742 10.6539C0.844313 10.6539 0 10.6132 0 9.6743V9.15427C0 7.54297 1.71876 6.14659 2.75202 5.50203C1.71872 4.85747 0.0344509 3.45883 0.0344509 1.84979V1.32558C0.0344509 0.403954 0.663856 0.345947 0.91307 0.345947H6.26489C6.49477 0.345947 7.33909 0.386709 7.33909 1.32558V1.84979C7.33909 3.46109 5.62033 4.85747 4.58706 5.50203L4.58469 5.50203ZM4.27957 6.31624C4.27957 6.31624 3.9208 6.08635 3.65661 5.92527C3.39451 6.08637 3.03365 6.31624 3.03365 6.31624C2.22156 6.87056 0.863806 8.00695 0.863806 9.15865V9.67852H0.863656C0.860659 9.71854 0.860659 9.75885 0.863656 9.79886H6.44105C6.44405 9.75885 6.44405 9.71853 6.44105 9.67852V9.15431C6.4496 8.00714 5.09186 6.8706 4.27977 6.31624H4.27957ZM6.47969 1.84987V1.32566C6.48268 1.28565 6.48268 1.24533 6.47969 1.20532H0.893846C0.890848 1.24534 0.890848 1.28565 0.893846 1.32566V1.84987C0.893846 3.00141 2.2516 4.13795 3.06369 4.69228C3.06369 4.69228 3.42246 4.92217 3.68665 5.08325C3.94875 4.92215 4.30961 4.69228 4.30961 4.69228C5.12186 4.13362 6.47969 2.99704 6.47969 1.84987Z" fill="#333333"/>
</svg>
