<svg width="33" height="34" viewBox="0 0 33 34" fill="none" xmlns="http://www.w3.org/2000/svg">
<path d="M14.7344 4.13677C15.4416 2.76582 17.398 2.7548 18.1205 4.11769V4.11769C18.6586 5.13267 19.9643 5.4467 20.905 4.7874V4.7874C22.1683 3.90211 23.9057 4.80153 23.9121 6.34409V6.34409C23.9169 7.49287 24.9271 8.37772 26.0665 8.23113V8.23113C27.5964 8.03429 28.7169 9.63812 28.0057 11.007V11.007C27.476 12.0264 27.9593 13.2793 29.0363 13.679V13.679C30.4825 14.2158 30.7293 16.1566 29.4634 17.0381V17.0381C28.5207 17.6946 28.3663 19.0286 29.1342 19.8831V19.8831C30.1653 21.0304 29.4819 22.8636 27.9513 23.0559V23.0559C26.8115 23.1991 26.0549 24.3085 26.3377 25.422V25.422C26.7176 26.917 25.2605 28.2226 23.8159 27.6816V27.6816C22.7401 27.2787 21.5545 27.9095 21.2875 29.0268V29.0268C20.929 30.5272 19.0321 31.0061 18.0044 29.8557V29.8557C17.2391 28.999 15.8962 29.0065 15.1405 29.8718V29.8718C14.1259 31.0337 12.2237 30.5762 11.8483 29.08V29.08C11.5687 27.9657 10.3761 27.3484 9.30494 27.7634V27.7634C7.86654 28.3206 6.39484 27.0315 6.75779 25.5323V25.5323C7.02808 24.4157 6.259 23.3149 5.11763 23.1845V23.1845C3.58502 23.0095 2.88096 21.1841 3.89907 20.0253V20.0253C4.65729 19.1622 4.48791 17.83 3.53785 17.1842V17.1842C2.26213 16.317 2.48701 14.3735 3.92706 13.8205V13.8205C4.99949 13.4087 5.46862 12.1504 4.92752 11.137V11.137C4.20095 9.77625 5.30324 8.1599 6.83532 8.33948V8.33948C7.9763 8.47322 8.97646 7.57705 8.96828 6.42829V6.42829C8.9573 4.88576 10.6845 3.96681 11.9576 4.83782V4.83782C12.9058 5.48647 14.2078 5.15775 14.7344 4.13677V4.13677Z" fill="#00256D"/>
<path d="M10.4951 17.2144L14.7126 21.4494L23.1651 12.9794" stroke="white" stroke-width="1.5" stroke-linecap="round" stroke-linejoin="round"/>
</svg>
