<svg width="17" height="17" viewBox="0 0 17 17" fill="none" xmlns="http://www.w3.org/2000/svg">
<path fill-rule="evenodd" clip-rule="evenodd" d="M0.5 8.21215C0.5 12.1898 3.38889 15.4971 7.16667 16.1675V10.3897H5.16667V8.16748H7.16667V6.38969C7.16667 4.38969 8.45553 3.27859 10.2778 3.27859C10.8555 3.27859 11.4778 3.36747 12.0555 3.45636V5.50081H11.0333C10.0555 5.50081 9.83333 5.98969 9.83333 6.61192V8.16748H11.9667L11.6111 10.3897H9.83333V16.1675C13.6111 15.4971 16.5 12.1898 16.5 8.21215C16.5 3.78759 12.9 0.16748 8.5 0.16748C4.1 0.16748 0.5 3.78759 0.5 8.21215H0.5Z" fill="white"/>
</svg>
