<svg width="17" height="17" viewBox="0 0 17 17" fill="none" xmlns="http://www.w3.org/2000/svg">
<path fill-rule="evenodd" clip-rule="evenodd" d="M5.20177 0.21548C6.05511 0.176368 6.32711 0.16748 8.5 0.16748C10.6733 0.16748 10.9449 0.176811 11.7977 0.21548C12.6497 0.25415 13.2316 0.389706 13.7404 0.58748C14.2742 0.788433 14.7577 1.10329 15.1573 1.51015C15.5642 1.90974 15.8791 2.39327 16.08 2.92704C16.2777 3.43592 16.4129 4.01771 16.452 4.86926C16.4911 5.72259 16.5 5.99459 16.5 8.16748C16.5 10.3404 16.4907 10.6124 16.452 11.4657C16.4133 12.3172 16.2777 12.899 16.08 13.4079C15.8756 13.9337 15.6017 14.3804 15.1573 14.8248C14.7577 15.2317 14.2742 15.5466 13.7404 15.7475C13.2316 15.9452 12.6497 16.0804 11.7983 16.1195C10.9449 16.1586 10.6729 16.1675 8.5 16.1675C6.32711 16.1675 6.05511 16.1582 5.20177 16.1195C4.35023 16.0808 3.76844 15.9452 3.25956 15.7475C2.73377 15.543 2.28711 15.2692 1.84267 14.8248C1.43574 14.4252 1.12086 13.9417 0.92 13.4079C0.722225 12.899 0.587113 12.3172 0.548 11.4657C0.508887 10.6124 0.5 10.3408 0.5 8.16748C0.5 5.99415 0.509331 5.72259 0.548 4.86971C0.586669 4.01771 0.722225 3.43592 0.92 2.92704C1.12095 2.39331 1.43581 1.90979 1.84267 1.51015C2.24225 1.10322 2.72578 0.788339 3.25956 0.58748C3.76844 0.389706 4.35023 0.254593 5.20177 0.21548ZM11.7329 1.65548C10.8893 1.61726 10.636 1.60881 8.5 1.60881C6.364 1.60881 6.11067 1.61726 5.26711 1.65548C4.48711 1.69104 4.06356 1.82126 3.78177 1.93104C3.40844 2.07592 3.14177 2.24925 2.86177 2.52925C2.58223 2.80925 2.40844 3.07592 2.26356 3.44926C2.15377 3.73104 2.02356 4.15459 1.988 4.93459C1.94977 5.77815 1.94133 6.03148 1.94133 8.16748C1.94133 10.3035 1.94977 10.5568 1.988 11.4004C2.02356 12.1804 2.15377 12.6039 2.26356 12.8857C2.39172 13.2332 2.59614 13.5476 2.86177 13.8057C3.11988 14.0713 3.43426 14.2758 3.78177 14.4039C4.06356 14.5137 4.48711 14.6439 5.26711 14.6795C6.11067 14.7177 6.36356 14.7262 8.5 14.7262C10.6364 14.7262 10.8893 14.7177 11.7329 14.6795C12.5129 14.6439 12.9364 14.5137 13.2183 14.4039C13.5916 14.259 13.8583 14.0857 14.1383 13.8057C14.4039 13.5476 14.6083 13.2332 14.7364 12.8857C14.8463 12.6039 14.9764 12.1804 15.012 11.4004C15.0503 10.5568 15.0587 10.3035 15.0587 8.16748C15.0587 6.03148 15.0503 5.77815 15.012 4.93459C14.9764 4.15459 14.8463 3.73104 14.7364 3.44926C14.5916 3.07592 14.4183 2.80925 14.1383 2.52925C13.8583 2.24971 13.5916 2.07592 13.2183 1.93104C12.9364 1.82126 12.5129 1.69104 11.7329 1.65548ZM7.47855 10.6336C7.8024 10.7678 8.14945 10.8368 8.5 10.8368C9.208 10.8368 9.88691 10.5556 10.3875 10.055C10.8881 9.55439 11.1694 8.87541 11.1694 8.16748C11.1694 7.45955 10.8881 6.78057 10.3875 6.27998C9.88691 5.77938 9.208 5.49814 8.5 5.49814C8.14945 5.49814 7.8024 5.56719 7.47855 5.70133C7.15462 5.83548 6.86039 6.0321 6.61252 6.27998C6.36465 6.52784 6.16802 6.8221 6.03388 7.14595C5.89973 7.46981 5.83069 7.81694 5.83069 8.16748C5.83069 8.51803 5.89973 8.86515 6.03388 9.18901C6.16802 9.51286 6.36465 9.80712 6.61252 10.055C6.86039 10.3028 7.15462 10.4995 7.47855 10.6336ZM5.5924 5.25985C6.36355 4.4887 7.40945 4.05547 8.5 4.05547C9.59062 4.05547 10.6365 4.4887 11.4076 5.25985C12.1788 6.031 12.612 7.07694 12.612 8.16748C12.612 9.25803 12.1788 10.3039 11.4076 11.0751C10.6365 11.8462 9.59062 12.2795 8.5 12.2795C7.40945 12.2795 6.36355 11.8462 5.5924 11.0751C4.82125 10.3039 4.38802 9.25803 4.38802 8.16748C4.38802 7.07694 4.82125 6.031 5.5924 5.25985ZM13.5238 4.66812C13.706 4.48583 13.8084 4.2386 13.8084 3.98081C13.8084 3.72302 13.706 3.47579 13.5238 3.2935C13.3415 3.11122 13.0943 3.00881 12.8364 3.00881C12.5787 3.00881 12.3314 3.11122 12.1492 3.2935C11.9668 3.47579 11.8644 3.72302 11.8644 3.98081C11.8644 4.2386 11.9668 4.48583 12.1492 4.66812C12.3314 4.8504 12.5787 4.95281 12.8364 4.95281C13.0943 4.95281 13.3415 4.8504 13.5238 4.66812Z" fill="white"/>
</svg>
