<svg width="20" height="16" viewBox="0 0 20 16" fill="none" xmlns="http://www.w3.org/2000/svg">
<path d="M19.5 2.44352C18.8013 2.74427 18.0507 2.94748 17.2616 3.03933C18.0666 2.57113 18.6841 1.82821 18.9753 0.943843C18.2222 1.3779 17.388 1.69327 16.5001 1.86234C15.7889 1.12754 14.7764 0.66748 13.6551 0.66748C11.5029 0.66748 9.75733 2.36305 9.75733 4.45528C9.75733 4.75115 9.79247 5.03889 9.85774 5.31688C6.61689 5.15838 3.74588 3.65058 1.82295 1.36001C1.48824 1.92087 1.29578 2.57113 1.29578 3.26367C1.29578 4.5772 1.98445 5.73712 3.0296 6.41583C2.39029 6.39551 1.78948 6.22563 1.26398 5.94195V5.99072C1.26398 7.82527 2.60702 9.35584 4.39104 9.70373C4.06302 9.78989 3.71911 9.83541 3.36431 9.83541C3.11327 9.83541 2.8681 9.81265 2.63045 9.76876C3.12666 11.2725 4.56593 12.3682 6.27213 12.3975C4.93746 13.4135 3.25636 14.0191 1.4305 14.0191C1.11587 14.0191 0.805424 14.0012 0.5 13.9662C2.22545 15.0416 4.27389 15.6675 6.47463 15.6675C13.6459 15.6675 17.5662 9.898 17.5662 4.89421C17.5662 4.73164 17.562 4.56745 17.5545 4.40488C18.316 3.87004 18.977 3.20433 19.4983 2.44596L19.5 2.44352Z" fill="white"/>
</svg>
