<svg width="25" height="17" viewBox="0 0 25 17" fill="none" xmlns="http://www.w3.org/2000/svg">
<path d="M23.9967 2.67672C23.8645 2.19786 23.6006 1.76005 23.2316 1.40717C22.8624 1.0543 22.4011 0.798764 21.8937 0.666185C20.016 0.172366 12.4927 0.172366 12.4927 0.172366C9.35575 0.136958 6.2196 0.294052 3.10438 0.642669C2.5968 0.784933 2.13619 1.04635 1.76604 1.40226C1.3959 1.75815 1.12842 2.19677 0.988867 2.67672C0.652308 4.48966 0.488927 6.32727 0.500672 8.16745C0.488122 10.0077 0.65151 11.8454 0.988867 13.6583C1.12555 14.1369 1.39245 14.5739 1.76336 14.9265C2.13425 15.279 2.59639 15.5348 3.10438 15.6688C5.0071 16.1626 12.4927 16.1626 12.4927 16.1626C15.6339 16.1981 18.7743 16.041 21.8937 15.6923C22.4011 15.5597 22.8624 15.3042 23.2316 14.9513C23.6006 14.5984 23.8645 14.1606 23.9967 13.6818C24.3418 11.8697 24.5094 10.0318 24.4974 8.19104C24.5233 6.34196 24.3555 4.49496 23.9967 2.67672ZM10.1019 11.589V4.74605L16.3608 8.16745L10.1019 11.589Z" fill="white"/>
</svg>
